G75*
%MOIN*%
%OFA0B0*%
%FSLAX24Y24*%
%IPPOS*%
%LPD*%
%AMOC8*
5,1,8,0,0,1.08239X$1,22.5*
%
%ADD10C,0.0600*%
%ADD11C,0.1000*%
%ADD12C,0.0160*%
%ADD13C,0.0270*%
%ADD14C,0.0220*%
%ADD15C,0.0180*%
D10*
X005805Y002555D03*
X006805Y003055D03*
X005805Y003555D03*
X006805Y004055D03*
X005805Y004555D03*
X006805Y005055D03*
X005805Y005555D03*
X006805Y002055D03*
D11*
X014094Y002427D03*
X014094Y001049D03*
X014094Y003805D03*
X014094Y005183D03*
X014094Y006561D03*
D12*
X000480Y000443D02*
X000443Y000480D01*
X000423Y000529D01*
X000420Y000555D01*
X000420Y007055D01*
X000423Y007081D01*
X000443Y007130D01*
X000480Y007167D01*
X000529Y007187D01*
X000555Y007190D01*
X013679Y007190D01*
X013675Y007188D01*
X013467Y006980D01*
X013438Y006911D01*
X011089Y006911D01*
X010861Y007139D01*
X010744Y007187D01*
X010116Y007187D01*
X009999Y007139D01*
X009867Y007007D01*
X009794Y006977D01*
X009133Y006316D01*
X009080Y006187D01*
X009080Y006048D01*
X009080Y005690D01*
X009055Y005630D01*
X009055Y005480D01*
X009086Y005405D01*
X008484Y005405D01*
X008147Y005742D01*
X008054Y005835D01*
X007933Y005885D01*
X006239Y005885D01*
X006111Y006013D01*
X005912Y006095D01*
X005698Y006095D01*
X005499Y006013D01*
X005347Y005861D01*
X005265Y005662D01*
X005265Y005448D01*
X005347Y005249D01*
X005499Y005097D01*
X005601Y005055D01*
X005499Y005013D01*
X005347Y004861D01*
X005265Y004662D01*
X005265Y004448D01*
X005347Y004249D01*
X005499Y004097D01*
X005684Y004020D01*
X005621Y004000D01*
X005553Y003966D01*
X005492Y003921D01*
X005439Y003868D01*
X005394Y003807D01*
X005360Y003739D01*
X005337Y003667D01*
X000420Y003667D01*
X000420Y003509D02*
X005326Y003509D01*
X005325Y003517D02*
X005337Y003443D01*
X005360Y003371D01*
X005394Y003303D01*
X005439Y003242D01*
X005492Y003189D01*
X005553Y003144D01*
X005621Y003110D01*
X005684Y003090D01*
X005499Y003013D01*
X005347Y002861D01*
X005265Y002662D01*
X005265Y002448D01*
X005347Y002249D01*
X005499Y002097D01*
X005698Y002015D01*
X005912Y002015D01*
X006111Y002097D01*
X006239Y002225D01*
X006291Y002225D01*
X006265Y002162D01*
X006265Y001948D01*
X006347Y001749D01*
X006499Y001597D01*
X006698Y001515D01*
X006912Y001515D01*
X007111Y001597D01*
X007219Y001705D01*
X008795Y001705D01*
X008855Y001680D01*
X009005Y001680D01*
X009142Y001737D01*
X009248Y001843D01*
X009274Y001905D01*
X009300Y001843D01*
X009405Y001737D01*
X009543Y001680D01*
X009692Y001680D01*
X009830Y001737D01*
X009935Y001843D01*
X009960Y001903D01*
X010135Y002077D01*
X013438Y002077D01*
X013467Y002008D01*
X013675Y001800D01*
X013908Y001703D01*
X013875Y001694D01*
X013793Y001660D01*
X013716Y001616D01*
X013645Y001561D01*
X013582Y001498D01*
X013528Y001428D01*
X013483Y001350D01*
X013449Y001268D01*
X013426Y001182D01*
X013414Y001094D01*
X013414Y001068D01*
X014076Y001068D01*
X014076Y001031D01*
X013414Y001031D01*
X013414Y001005D01*
X013426Y000916D01*
X013449Y000830D01*
X013483Y000748D01*
X013528Y000670D01*
X013582Y000600D01*
X013645Y000537D01*
X013716Y000482D01*
X013793Y000438D01*
X013836Y000420D01*
X000555Y000420D01*
X000529Y000423D01*
X000480Y000443D01*
X000436Y000497D02*
X013697Y000497D01*
X013539Y000656D02*
X000420Y000656D01*
X000420Y000814D02*
X002801Y000814D01*
X002807Y000809D02*
X003130Y000675D01*
X003480Y000675D01*
X003803Y000809D01*
X004051Y001057D01*
X004185Y001380D01*
X004185Y001730D01*
X004051Y002053D01*
X003803Y002301D01*
X003480Y002435D01*
X003130Y002435D01*
X002807Y002301D01*
X002559Y002053D01*
X002425Y001730D01*
X002425Y001380D01*
X002559Y001057D01*
X002807Y000809D01*
X002643Y000973D02*
X000420Y000973D01*
X000420Y001131D02*
X002528Y001131D01*
X002462Y001290D02*
X000420Y001290D01*
X000420Y001448D02*
X002425Y001448D01*
X002425Y001607D02*
X000420Y001607D01*
X000420Y001765D02*
X002439Y001765D01*
X002505Y001924D02*
X000420Y001924D01*
X000420Y002082D02*
X002587Y002082D01*
X002746Y002241D02*
X000420Y002241D01*
X000420Y002399D02*
X003043Y002399D01*
X003567Y002399D02*
X005285Y002399D01*
X005265Y002558D02*
X000420Y002558D01*
X000420Y002716D02*
X005287Y002716D01*
X005361Y002875D02*
X000420Y002875D01*
X000420Y003033D02*
X005548Y003033D01*
X005490Y003192D02*
X000420Y003192D01*
X000420Y003350D02*
X005371Y003350D01*
X005325Y003517D02*
X005325Y003547D01*
X005797Y003547D01*
X005797Y003563D01*
X005325Y003563D01*
X005325Y003593D01*
X005337Y003667D01*
X005408Y003826D02*
X000420Y003826D01*
X000420Y003984D02*
X005590Y003984D01*
X005454Y004143D02*
X000420Y004143D01*
X000420Y004301D02*
X005326Y004301D01*
X005265Y004460D02*
X000420Y004460D01*
X000420Y004618D02*
X005265Y004618D01*
X005312Y004777D02*
X000420Y004777D01*
X000420Y004935D02*
X005421Y004935D01*
X005508Y005094D02*
X000420Y005094D01*
X000420Y005252D02*
X002944Y005252D01*
X002807Y005309D02*
X003130Y005175D01*
X003480Y005175D01*
X003803Y005309D01*
X004051Y005557D01*
X004185Y005880D01*
X004185Y006230D01*
X004051Y006553D01*
X003803Y006801D01*
X003480Y006935D01*
X003130Y006935D01*
X002807Y006801D01*
X002559Y006553D01*
X002425Y006230D01*
X002425Y005880D01*
X002559Y005557D01*
X002807Y005309D01*
X002705Y005411D02*
X000420Y005411D01*
X000420Y005569D02*
X002554Y005569D01*
X002488Y005728D02*
X000420Y005728D01*
X000420Y005886D02*
X002425Y005886D01*
X002425Y006045D02*
X000420Y006045D01*
X000420Y006203D02*
X002425Y006203D01*
X002479Y006362D02*
X000420Y006362D01*
X000420Y006520D02*
X002545Y006520D01*
X002684Y006679D02*
X000420Y006679D01*
X000420Y006837D02*
X002893Y006837D01*
X003717Y006837D02*
X009655Y006837D01*
X009496Y006679D02*
X003926Y006679D01*
X004065Y006520D02*
X009338Y006520D01*
X009179Y006362D02*
X004131Y006362D01*
X004185Y006203D02*
X009087Y006203D01*
X009080Y006045D02*
X006034Y006045D01*
X006238Y005886D02*
X009080Y005886D01*
X009080Y005728D02*
X008162Y005728D01*
X008320Y005569D02*
X009055Y005569D01*
X009084Y005411D02*
X008479Y005411D01*
X009993Y006680D02*
X010180Y006868D01*
X010680Y006868D01*
X010987Y006561D01*
X011005Y006996D02*
X013482Y006996D01*
X013641Y007154D02*
X010824Y007154D01*
X010036Y007154D02*
X000467Y007154D01*
X000420Y006996D02*
X009840Y006996D01*
X005576Y006045D02*
X004185Y006045D01*
X004185Y005886D02*
X005372Y005886D01*
X005292Y005728D02*
X004122Y005728D01*
X004056Y005569D02*
X005265Y005569D01*
X005280Y005411D02*
X003905Y005411D01*
X003666Y005252D02*
X005346Y005252D01*
X006239Y004225D02*
X006291Y004225D01*
X006265Y004162D01*
X006265Y003948D01*
X006347Y003749D01*
X006499Y003597D01*
X006601Y003555D01*
X006499Y003513D01*
X006347Y003361D01*
X006265Y003162D01*
X006265Y002948D01*
X006291Y002885D01*
X006239Y002885D01*
X006111Y003013D01*
X005926Y003090D01*
X005989Y003110D01*
X006057Y003144D01*
X006118Y003189D01*
X006171Y003242D01*
X006216Y003303D01*
X006250Y003371D01*
X006273Y003443D01*
X006285Y003517D01*
X006285Y003547D01*
X005813Y003547D01*
X005813Y003563D01*
X006285Y003563D01*
X006285Y003593D01*
X006273Y003667D01*
X006429Y003667D01*
X006273Y003667D02*
X006250Y003739D01*
X006216Y003807D01*
X006171Y003868D01*
X006118Y003921D01*
X006057Y003966D01*
X005989Y004000D01*
X005926Y004020D01*
X006111Y004097D01*
X006239Y004225D01*
X006265Y004143D02*
X006156Y004143D01*
X006265Y003984D02*
X006020Y003984D01*
X006202Y003826D02*
X006316Y003826D01*
X006284Y003509D02*
X006495Y003509D01*
X006343Y003350D02*
X006239Y003350D01*
X006277Y003192D02*
X006120Y003192D01*
X006062Y003033D02*
X006265Y003033D01*
X005356Y002241D02*
X003864Y002241D01*
X004023Y002082D02*
X005536Y002082D01*
X006074Y002082D02*
X006265Y002082D01*
X006275Y001924D02*
X004105Y001924D01*
X004171Y001765D02*
X006341Y001765D01*
X006490Y001607D02*
X004185Y001607D01*
X004185Y001448D02*
X008418Y001448D01*
X008468Y001498D02*
X008362Y001392D01*
X008305Y001255D01*
X008305Y001105D01*
X008362Y000968D01*
X008468Y000862D01*
X008605Y000805D01*
X008755Y000805D01*
X008815Y000830D01*
X010420Y000830D01*
X010480Y000805D01*
X010630Y000805D01*
X010767Y000862D01*
X010873Y000968D01*
X010930Y001105D01*
X010930Y001255D01*
X010873Y001392D01*
X010767Y001498D01*
X010630Y001555D01*
X010480Y001555D01*
X010420Y001530D01*
X008815Y001530D01*
X008755Y001555D01*
X008605Y001555D01*
X008468Y001498D01*
X008319Y001290D02*
X004148Y001290D01*
X004082Y001131D02*
X008305Y001131D01*
X008360Y000973D02*
X003967Y000973D01*
X003809Y000814D02*
X008584Y000814D01*
X008776Y000814D02*
X010459Y000814D01*
X010651Y000814D02*
X013456Y000814D01*
X013419Y000973D02*
X010875Y000973D01*
X010930Y001131D02*
X013419Y001131D01*
X013458Y001290D02*
X010916Y001290D01*
X010817Y001448D02*
X013543Y001448D01*
X013704Y001607D02*
X007120Y001607D01*
X008743Y002555D02*
X009243Y003055D01*
X009680Y003055D02*
X009180Y002555D01*
X009981Y001924D02*
X013551Y001924D01*
X013759Y001765D02*
X009858Y001765D01*
X009377Y001765D02*
X009170Y001765D01*
X009430Y003555D02*
X009805Y003930D01*
X014365Y004494D02*
X014514Y004556D01*
X014722Y004764D01*
X014834Y005036D01*
X014834Y005330D01*
X014722Y005602D01*
X014514Y005810D01*
X014365Y005872D01*
X014514Y005934D01*
X014722Y006142D01*
X014834Y006414D01*
X014834Y006708D01*
X014722Y006980D01*
X014514Y007188D01*
X014509Y007190D01*
X015132Y007190D01*
X015180Y007190D01*
X015206Y007187D01*
X015255Y007167D01*
X015292Y007130D01*
X015312Y007081D01*
X015315Y007055D01*
X015315Y000555D01*
X015312Y000529D01*
X015292Y000480D01*
X015255Y000443D01*
X015206Y000423D01*
X015180Y000420D01*
X014353Y000420D01*
X014396Y000438D01*
X014473Y000482D01*
X014544Y000537D01*
X014607Y000600D01*
X014661Y000670D01*
X014706Y000748D01*
X014740Y000830D01*
X014763Y000916D01*
X014774Y001005D01*
X014774Y001031D01*
X014113Y001031D01*
X014113Y001068D01*
X014774Y001068D01*
X014774Y001094D01*
X014763Y001182D01*
X014740Y001268D01*
X014706Y001350D01*
X014661Y001428D01*
X014607Y001498D01*
X014544Y001561D01*
X014473Y001616D01*
X014396Y001660D01*
X014313Y001694D01*
X014281Y001703D01*
X014514Y001800D01*
X014722Y002008D01*
X014834Y002280D01*
X014834Y002574D01*
X014722Y002846D01*
X014514Y003054D01*
X014365Y003116D01*
X014514Y003178D01*
X014722Y003386D01*
X014834Y003658D01*
X014834Y003952D01*
X014722Y004224D01*
X014514Y004432D01*
X014365Y004494D01*
X014448Y004460D02*
X015315Y004460D01*
X015315Y004618D02*
X014576Y004618D01*
X014727Y004777D02*
X015315Y004777D01*
X015315Y004935D02*
X014793Y004935D01*
X014834Y005094D02*
X015315Y005094D01*
X015315Y005252D02*
X014834Y005252D01*
X014801Y005411D02*
X015315Y005411D01*
X015315Y005569D02*
X014735Y005569D01*
X014596Y005728D02*
X015315Y005728D01*
X015315Y005886D02*
X014399Y005886D01*
X014624Y006045D02*
X015315Y006045D01*
X015315Y006203D02*
X014747Y006203D01*
X014813Y006362D02*
X015315Y006362D01*
X015315Y006520D02*
X014834Y006520D01*
X014834Y006679D02*
X015315Y006679D01*
X015315Y006837D02*
X014781Y006837D01*
X014706Y006996D02*
X015315Y006996D01*
X015268Y007154D02*
X014548Y007154D01*
X014645Y004301D02*
X015315Y004301D01*
X015315Y004143D02*
X014756Y004143D01*
X014821Y003984D02*
X015315Y003984D01*
X015315Y003826D02*
X014834Y003826D01*
X014834Y003667D02*
X015315Y003667D01*
X015315Y003509D02*
X014773Y003509D01*
X014686Y003350D02*
X015315Y003350D01*
X015315Y003192D02*
X014527Y003192D01*
X014535Y003033D02*
X015315Y003033D01*
X015315Y002875D02*
X014693Y002875D01*
X014776Y002716D02*
X015315Y002716D01*
X015315Y002558D02*
X014834Y002558D01*
X014834Y002399D02*
X015315Y002399D01*
X015315Y002241D02*
X014818Y002241D01*
X014752Y002082D02*
X015315Y002082D01*
X015315Y001924D02*
X014637Y001924D01*
X014430Y001765D02*
X015315Y001765D01*
X015315Y001607D02*
X014485Y001607D01*
X014645Y001448D02*
X015315Y001448D01*
X015315Y001290D02*
X014731Y001290D01*
X014769Y001131D02*
X015315Y001131D01*
X015315Y000973D02*
X014770Y000973D01*
X014733Y000814D02*
X015315Y000814D01*
X015315Y000656D02*
X014649Y000656D01*
X014492Y000497D02*
X015299Y000497D01*
D13*
X010555Y001180D03*
X009618Y002055D03*
X008930Y002055D03*
X009180Y002555D03*
X009243Y003055D03*
X008836Y003055D03*
X009430Y003555D03*
X009430Y004055D03*
X009430Y004555D03*
X009430Y005055D03*
X009430Y005555D03*
X010430Y006430D03*
X008680Y001180D03*
D14*
X010555Y001180D01*
X009618Y002055D02*
X009990Y002427D01*
X014094Y002427D01*
X014094Y003805D02*
X010430Y003805D01*
X009680Y003055D01*
X008836Y003055D02*
X006805Y003055D01*
X007305Y003555D02*
X006805Y004055D01*
X007680Y004055D02*
X009430Y004055D01*
X009805Y003930D02*
X010430Y004555D01*
X010430Y006430D01*
X011677Y005183D01*
X014094Y005183D01*
X014094Y006561D02*
X010987Y006561D01*
X009993Y006680D02*
X009430Y006118D01*
X009430Y005555D01*
X009430Y005055D02*
X008368Y005055D01*
X008055Y004555D02*
X007555Y005055D01*
X006805Y005055D01*
X008055Y004555D02*
X009430Y004555D01*
X009430Y003555D02*
X007305Y003555D01*
X006805Y002055D02*
X008930Y002055D01*
D15*
X008743Y002555D02*
X005805Y002555D01*
X007680Y004055D02*
X007180Y004555D01*
X005805Y004555D01*
X005805Y005555D02*
X007868Y005555D01*
X008368Y005055D01*
M02*
