G75*
%MOIN*%
%OFA0B0*%
%FSLAX24Y24*%
%IPPOS*%
%LPD*%
%AMOC8*
5,1,8,0,0,1.08239X$1,22.5*
%
%ADD10C,0.0080*%
%ADD11C,0.0060*%
%ADD12C,0.0120*%
%ADD13C,0.0040*%
%ADD14C,0.0100*%
D10*
X000255Y000759D02*
X000255Y006851D01*
X000269Y006851D02*
X007257Y006851D01*
X007257Y000759D01*
X000255Y000759D01*
X011720Y005180D02*
X012000Y005180D01*
X012180Y005180D02*
X012321Y005250D01*
X012391Y005250D01*
X012461Y005180D01*
X012461Y005040D01*
X012391Y004970D01*
X012250Y004970D01*
X012180Y005040D01*
X012180Y005180D02*
X012180Y005390D01*
X012461Y005390D01*
X011860Y005320D02*
X011860Y005040D01*
X012158Y004015D02*
X012368Y004015D01*
X012438Y003945D01*
X012438Y003875D01*
X012368Y003805D01*
X012158Y003805D01*
X012368Y003805D02*
X012438Y003735D01*
X012438Y003665D01*
X012368Y003595D01*
X012158Y003595D01*
X012158Y004015D01*
X012158Y002640D02*
X012298Y002640D01*
X012228Y002640D02*
X012228Y002220D01*
X012158Y002220D02*
X012298Y002220D01*
X012368Y001265D02*
X012228Y001265D01*
X012158Y001195D01*
X012158Y000915D01*
X012228Y000845D01*
X012368Y000845D01*
X012438Y000915D01*
X012438Y001055D01*
X012298Y001055D01*
X012438Y001195D02*
X012368Y001265D01*
X012438Y006345D02*
X012438Y006625D01*
X012298Y006765D01*
X012158Y006625D01*
X012158Y006345D01*
X012158Y006555D02*
X012438Y006555D01*
D11*
X010138Y005655D02*
X010138Y001955D01*
X010136Y001932D01*
X010131Y001909D01*
X010122Y001887D01*
X010109Y001867D01*
X010094Y001849D01*
X010076Y001834D01*
X010056Y001821D01*
X010034Y001812D01*
X010011Y001807D01*
X009988Y001805D01*
X009630Y001805D01*
X009230Y001805D01*
X008873Y001805D01*
X008850Y001807D01*
X008827Y001812D01*
X008805Y001821D01*
X008785Y001834D01*
X008767Y001849D01*
X008752Y001867D01*
X008739Y001887D01*
X008730Y001909D01*
X008725Y001932D01*
X008723Y001955D01*
X008723Y005655D01*
X008725Y005678D01*
X008730Y005701D01*
X008739Y005723D01*
X008752Y005743D01*
X008767Y005761D01*
X008785Y005776D01*
X008805Y005789D01*
X008827Y005798D01*
X008850Y005803D01*
X008873Y005805D01*
X009988Y005805D01*
X010011Y005803D01*
X010034Y005798D01*
X010056Y005789D01*
X010076Y005776D01*
X010094Y005761D01*
X010109Y005743D01*
X010122Y005723D01*
X010131Y005701D01*
X010136Y005678D01*
X010138Y005655D01*
D12*
X009839Y002055D02*
X009841Y002070D01*
X009846Y002084D01*
X009855Y002096D01*
X009867Y002106D01*
X009880Y002112D01*
X009895Y002115D01*
X009910Y002114D01*
X009925Y002109D01*
X009937Y002101D01*
X009948Y002090D01*
X009955Y002077D01*
X009959Y002063D01*
X009959Y002047D01*
X009955Y002033D01*
X009948Y002020D01*
X009937Y002009D01*
X009925Y002001D01*
X009910Y001996D01*
X009895Y001995D01*
X009880Y001998D01*
X009867Y002004D01*
X009855Y002014D01*
X009846Y002026D01*
X009841Y002040D01*
X009839Y002055D01*
D13*
X012618Y000262D02*
X013302Y000262D01*
X013302Y007348D01*
X012618Y007348D01*
X012618Y000262D01*
X013302Y000262D02*
X013489Y000262D01*
X014691Y000262D01*
X014881Y000262D01*
X015201Y000262D01*
X015374Y000262D01*
X015492Y000262D01*
X015492Y007348D01*
X015374Y007348D01*
X015201Y007348D01*
X014881Y007348D01*
X014691Y007348D01*
X013489Y007348D01*
X013302Y007348D01*
X013523Y006561D02*
X013525Y006608D01*
X013531Y006655D01*
X013540Y006701D01*
X013554Y006746D01*
X013571Y006790D01*
X013592Y006833D01*
X013616Y006873D01*
X013643Y006912D01*
X013674Y006948D01*
X013707Y006981D01*
X013743Y007012D01*
X013782Y007039D01*
X013822Y007063D01*
X013865Y007084D01*
X013909Y007101D01*
X013954Y007115D01*
X014000Y007124D01*
X014047Y007130D01*
X014094Y007132D01*
X014141Y007130D01*
X014188Y007124D01*
X014234Y007115D01*
X014279Y007101D01*
X014323Y007084D01*
X014366Y007063D01*
X014406Y007039D01*
X014445Y007012D01*
X014481Y006981D01*
X014514Y006948D01*
X014545Y006912D01*
X014572Y006873D01*
X014596Y006833D01*
X014617Y006790D01*
X014634Y006746D01*
X014648Y006701D01*
X014657Y006655D01*
X014663Y006608D01*
X014665Y006561D01*
X014663Y006514D01*
X014657Y006467D01*
X014648Y006421D01*
X014634Y006376D01*
X014617Y006332D01*
X014596Y006289D01*
X014572Y006249D01*
X014545Y006210D01*
X014514Y006174D01*
X014481Y006141D01*
X014445Y006110D01*
X014406Y006083D01*
X014366Y006059D01*
X014323Y006038D01*
X014279Y006021D01*
X014234Y006007D01*
X014188Y005998D01*
X014141Y005992D01*
X014094Y005990D01*
X014047Y005992D01*
X014000Y005998D01*
X013954Y006007D01*
X013909Y006021D01*
X013865Y006038D01*
X013822Y006059D01*
X013782Y006083D01*
X013743Y006110D01*
X013707Y006141D01*
X013674Y006174D01*
X013643Y006210D01*
X013616Y006249D01*
X013592Y006289D01*
X013571Y006332D01*
X013554Y006376D01*
X013540Y006421D01*
X013531Y006467D01*
X013525Y006514D01*
X013523Y006561D01*
X014881Y007348D02*
X014881Y000262D01*
X013523Y001049D02*
X013525Y001096D01*
X013531Y001143D01*
X013540Y001189D01*
X013554Y001234D01*
X013571Y001278D01*
X013592Y001321D01*
X013616Y001361D01*
X013643Y001400D01*
X013674Y001436D01*
X013707Y001469D01*
X013743Y001500D01*
X013782Y001527D01*
X013822Y001551D01*
X013865Y001572D01*
X013909Y001589D01*
X013954Y001603D01*
X014000Y001612D01*
X014047Y001618D01*
X014094Y001620D01*
X014141Y001618D01*
X014188Y001612D01*
X014234Y001603D01*
X014279Y001589D01*
X014323Y001572D01*
X014366Y001551D01*
X014406Y001527D01*
X014445Y001500D01*
X014481Y001469D01*
X014514Y001436D01*
X014545Y001400D01*
X014572Y001361D01*
X014596Y001321D01*
X014617Y001278D01*
X014634Y001234D01*
X014648Y001189D01*
X014657Y001143D01*
X014663Y001096D01*
X014665Y001049D01*
X014663Y001002D01*
X014657Y000955D01*
X014648Y000909D01*
X014634Y000864D01*
X014617Y000820D01*
X014596Y000777D01*
X014572Y000737D01*
X014545Y000698D01*
X014514Y000662D01*
X014481Y000629D01*
X014445Y000598D01*
X014406Y000571D01*
X014366Y000547D01*
X014323Y000526D01*
X014279Y000509D01*
X014234Y000495D01*
X014188Y000486D01*
X014141Y000480D01*
X014094Y000478D01*
X014047Y000480D01*
X014000Y000486D01*
X013954Y000495D01*
X013909Y000509D01*
X013865Y000526D01*
X013822Y000547D01*
X013782Y000571D01*
X013743Y000598D01*
X013707Y000629D01*
X013674Y000662D01*
X013643Y000698D01*
X013616Y000737D01*
X013592Y000777D01*
X013571Y000820D01*
X013554Y000864D01*
X013540Y000909D01*
X013531Y000955D01*
X013525Y001002D01*
X013523Y001049D01*
X013523Y002427D02*
X013525Y002474D01*
X013531Y002521D01*
X013540Y002567D01*
X013554Y002612D01*
X013571Y002656D01*
X013592Y002699D01*
X013616Y002739D01*
X013643Y002778D01*
X013674Y002814D01*
X013707Y002847D01*
X013743Y002878D01*
X013782Y002905D01*
X013822Y002929D01*
X013865Y002950D01*
X013909Y002967D01*
X013954Y002981D01*
X014000Y002990D01*
X014047Y002996D01*
X014094Y002998D01*
X014141Y002996D01*
X014188Y002990D01*
X014234Y002981D01*
X014279Y002967D01*
X014323Y002950D01*
X014366Y002929D01*
X014406Y002905D01*
X014445Y002878D01*
X014481Y002847D01*
X014514Y002814D01*
X014545Y002778D01*
X014572Y002739D01*
X014596Y002699D01*
X014617Y002656D01*
X014634Y002612D01*
X014648Y002567D01*
X014657Y002521D01*
X014663Y002474D01*
X014665Y002427D01*
X014663Y002380D01*
X014657Y002333D01*
X014648Y002287D01*
X014634Y002242D01*
X014617Y002198D01*
X014596Y002155D01*
X014572Y002115D01*
X014545Y002076D01*
X014514Y002040D01*
X014481Y002007D01*
X014445Y001976D01*
X014406Y001949D01*
X014366Y001925D01*
X014323Y001904D01*
X014279Y001887D01*
X014234Y001873D01*
X014188Y001864D01*
X014141Y001858D01*
X014094Y001856D01*
X014047Y001858D01*
X014000Y001864D01*
X013954Y001873D01*
X013909Y001887D01*
X013865Y001904D01*
X013822Y001925D01*
X013782Y001949D01*
X013743Y001976D01*
X013707Y002007D01*
X013674Y002040D01*
X013643Y002076D01*
X013616Y002115D01*
X013592Y002155D01*
X013571Y002198D01*
X013554Y002242D01*
X013540Y002287D01*
X013531Y002333D01*
X013525Y002380D01*
X013523Y002427D01*
X013523Y003805D02*
X013525Y003852D01*
X013531Y003899D01*
X013540Y003945D01*
X013554Y003990D01*
X013571Y004034D01*
X013592Y004077D01*
X013616Y004117D01*
X013643Y004156D01*
X013674Y004192D01*
X013707Y004225D01*
X013743Y004256D01*
X013782Y004283D01*
X013822Y004307D01*
X013865Y004328D01*
X013909Y004345D01*
X013954Y004359D01*
X014000Y004368D01*
X014047Y004374D01*
X014094Y004376D01*
X014141Y004374D01*
X014188Y004368D01*
X014234Y004359D01*
X014279Y004345D01*
X014323Y004328D01*
X014366Y004307D01*
X014406Y004283D01*
X014445Y004256D01*
X014481Y004225D01*
X014514Y004192D01*
X014545Y004156D01*
X014572Y004117D01*
X014596Y004077D01*
X014617Y004034D01*
X014634Y003990D01*
X014648Y003945D01*
X014657Y003899D01*
X014663Y003852D01*
X014665Y003805D01*
X014663Y003758D01*
X014657Y003711D01*
X014648Y003665D01*
X014634Y003620D01*
X014617Y003576D01*
X014596Y003533D01*
X014572Y003493D01*
X014545Y003454D01*
X014514Y003418D01*
X014481Y003385D01*
X014445Y003354D01*
X014406Y003327D01*
X014366Y003303D01*
X014323Y003282D01*
X014279Y003265D01*
X014234Y003251D01*
X014188Y003242D01*
X014141Y003236D01*
X014094Y003234D01*
X014047Y003236D01*
X014000Y003242D01*
X013954Y003251D01*
X013909Y003265D01*
X013865Y003282D01*
X013822Y003303D01*
X013782Y003327D01*
X013743Y003354D01*
X013707Y003385D01*
X013674Y003418D01*
X013643Y003454D01*
X013616Y003493D01*
X013592Y003533D01*
X013571Y003576D01*
X013554Y003620D01*
X013540Y003665D01*
X013531Y003711D01*
X013525Y003758D01*
X013523Y003805D01*
X013523Y005183D02*
X013525Y005230D01*
X013531Y005277D01*
X013540Y005323D01*
X013554Y005368D01*
X013571Y005412D01*
X013592Y005455D01*
X013616Y005495D01*
X013643Y005534D01*
X013674Y005570D01*
X013707Y005603D01*
X013743Y005634D01*
X013782Y005661D01*
X013822Y005685D01*
X013865Y005706D01*
X013909Y005723D01*
X013954Y005737D01*
X014000Y005746D01*
X014047Y005752D01*
X014094Y005754D01*
X014141Y005752D01*
X014188Y005746D01*
X014234Y005737D01*
X014279Y005723D01*
X014323Y005706D01*
X014366Y005685D01*
X014406Y005661D01*
X014445Y005634D01*
X014481Y005603D01*
X014514Y005570D01*
X014545Y005534D01*
X014572Y005495D01*
X014596Y005455D01*
X014617Y005412D01*
X014634Y005368D01*
X014648Y005323D01*
X014657Y005277D01*
X014663Y005230D01*
X014665Y005183D01*
X014663Y005136D01*
X014657Y005089D01*
X014648Y005043D01*
X014634Y004998D01*
X014617Y004954D01*
X014596Y004911D01*
X014572Y004871D01*
X014545Y004832D01*
X014514Y004796D01*
X014481Y004763D01*
X014445Y004732D01*
X014406Y004705D01*
X014366Y004681D01*
X014323Y004660D01*
X014279Y004643D01*
X014234Y004629D01*
X014188Y004620D01*
X014141Y004614D01*
X014094Y004612D01*
X014047Y004614D01*
X014000Y004620D01*
X013954Y004629D01*
X013909Y004643D01*
X013865Y004660D01*
X013822Y004681D01*
X013782Y004705D01*
X013743Y004732D01*
X013707Y004763D01*
X013674Y004796D01*
X013643Y004832D01*
X013616Y004871D01*
X013592Y004911D01*
X013571Y004954D01*
X013554Y004998D01*
X013540Y005043D01*
X013531Y005089D01*
X013525Y005136D01*
X013523Y005183D01*
D14*
X011418Y006330D02*
X011318Y006330D01*
X011318Y006530D02*
X011418Y006530D01*
X009480Y006530D02*
X009380Y006530D01*
X009380Y006330D02*
X009480Y006330D01*
X009480Y001280D02*
X009380Y001280D01*
X009380Y001080D02*
X009480Y001080D01*
X011255Y001080D02*
X011355Y001080D01*
X011355Y001280D02*
X011255Y001280D01*
M02*
