%
M48
M72
T01C0.0130
T02C0.0350
T03C0.0394
T04C0.1280
%
T01
X8680Y1180
X8930Y2055
X9618Y2055
X9180Y2555
X9243Y3055
X8836Y3055
X9430Y3555
X9430Y4055
X9430Y4555
X9430Y5055
X9430Y5555
X10430Y6430
X10555Y1180
T02
X6805Y2055
X5805Y2555
X6805Y3055
X5805Y3555
X6805Y4055
X5805Y4555
X6805Y5055
X5805Y5555
T03
X14094Y5183
X14094Y6561
X14094Y3805
X14094Y2427
X14094Y1049
T04
X3305Y1555
X3305Y6055
M30
