G75*
%MOIN*%
%OFA0B0*%
%FSLAX24Y24*%
%IPPOS*%
%LPD*%
%AMOC8*
5,1,8,0,0,1.08239X$1,22.5*
%
%ADD10C,0.0000*%
D10*
X000555Y000180D02*
X015180Y000180D01*
X015217Y000182D01*
X015253Y000187D01*
X015289Y000196D01*
X015324Y000209D01*
X015357Y000224D01*
X015388Y000243D01*
X015418Y000265D01*
X015445Y000290D01*
X015470Y000317D01*
X015492Y000347D01*
X015511Y000378D01*
X015526Y000411D01*
X015539Y000446D01*
X015548Y000482D01*
X015553Y000518D01*
X015555Y000555D01*
X015555Y007055D01*
X015553Y007092D01*
X015548Y007128D01*
X015539Y007164D01*
X015526Y007199D01*
X015511Y007232D01*
X015492Y007263D01*
X015470Y007293D01*
X015445Y007320D01*
X015418Y007345D01*
X015388Y007367D01*
X015357Y007386D01*
X015324Y007401D01*
X015289Y007414D01*
X015253Y007423D01*
X015217Y007428D01*
X015180Y007430D01*
X000555Y007430D01*
X000518Y007428D01*
X000482Y007423D01*
X000446Y007414D01*
X000411Y007401D01*
X000378Y007386D01*
X000347Y007367D01*
X000317Y007345D01*
X000290Y007320D01*
X000265Y007293D01*
X000243Y007263D01*
X000224Y007232D01*
X000209Y007199D01*
X000196Y007164D01*
X000187Y007128D01*
X000182Y007092D01*
X000180Y007055D01*
X000180Y000555D01*
X000182Y000518D01*
X000187Y000482D01*
X000196Y000446D01*
X000209Y000411D01*
X000224Y000378D01*
X000243Y000347D01*
X000265Y000317D01*
X000290Y000290D01*
X000317Y000265D01*
X000347Y000243D01*
X000378Y000224D01*
X000411Y000209D01*
X000446Y000196D01*
X000482Y000187D01*
X000518Y000182D01*
X000555Y000180D01*
X002665Y001555D02*
X002667Y001605D01*
X002673Y001655D01*
X002683Y001704D01*
X002696Y001753D01*
X002714Y001800D01*
X002735Y001846D01*
X002759Y001889D01*
X002787Y001931D01*
X002818Y001971D01*
X002852Y002008D01*
X002889Y002042D01*
X002929Y002073D01*
X002971Y002101D01*
X003014Y002125D01*
X003060Y002146D01*
X003107Y002164D01*
X003156Y002177D01*
X003205Y002187D01*
X003255Y002193D01*
X003305Y002195D01*
X003355Y002193D01*
X003405Y002187D01*
X003454Y002177D01*
X003503Y002164D01*
X003550Y002146D01*
X003596Y002125D01*
X003639Y002101D01*
X003681Y002073D01*
X003721Y002042D01*
X003758Y002008D01*
X003792Y001971D01*
X003823Y001931D01*
X003851Y001889D01*
X003875Y001846D01*
X003896Y001800D01*
X003914Y001753D01*
X003927Y001704D01*
X003937Y001655D01*
X003943Y001605D01*
X003945Y001555D01*
X003943Y001505D01*
X003937Y001455D01*
X003927Y001406D01*
X003914Y001357D01*
X003896Y001310D01*
X003875Y001264D01*
X003851Y001221D01*
X003823Y001179D01*
X003792Y001139D01*
X003758Y001102D01*
X003721Y001068D01*
X003681Y001037D01*
X003639Y001009D01*
X003596Y000985D01*
X003550Y000964D01*
X003503Y000946D01*
X003454Y000933D01*
X003405Y000923D01*
X003355Y000917D01*
X003305Y000915D01*
X003255Y000917D01*
X003205Y000923D01*
X003156Y000933D01*
X003107Y000946D01*
X003060Y000964D01*
X003014Y000985D01*
X002971Y001009D01*
X002929Y001037D01*
X002889Y001068D01*
X002852Y001102D01*
X002818Y001139D01*
X002787Y001179D01*
X002759Y001221D01*
X002735Y001264D01*
X002714Y001310D01*
X002696Y001357D01*
X002683Y001406D01*
X002673Y001455D01*
X002667Y001505D01*
X002665Y001555D01*
X002665Y006055D02*
X002667Y006105D01*
X002673Y006155D01*
X002683Y006204D01*
X002696Y006253D01*
X002714Y006300D01*
X002735Y006346D01*
X002759Y006389D01*
X002787Y006431D01*
X002818Y006471D01*
X002852Y006508D01*
X002889Y006542D01*
X002929Y006573D01*
X002971Y006601D01*
X003014Y006625D01*
X003060Y006646D01*
X003107Y006664D01*
X003156Y006677D01*
X003205Y006687D01*
X003255Y006693D01*
X003305Y006695D01*
X003355Y006693D01*
X003405Y006687D01*
X003454Y006677D01*
X003503Y006664D01*
X003550Y006646D01*
X003596Y006625D01*
X003639Y006601D01*
X003681Y006573D01*
X003721Y006542D01*
X003758Y006508D01*
X003792Y006471D01*
X003823Y006431D01*
X003851Y006389D01*
X003875Y006346D01*
X003896Y006300D01*
X003914Y006253D01*
X003927Y006204D01*
X003937Y006155D01*
X003943Y006105D01*
X003945Y006055D01*
X003943Y006005D01*
X003937Y005955D01*
X003927Y005906D01*
X003914Y005857D01*
X003896Y005810D01*
X003875Y005764D01*
X003851Y005721D01*
X003823Y005679D01*
X003792Y005639D01*
X003758Y005602D01*
X003721Y005568D01*
X003681Y005537D01*
X003639Y005509D01*
X003596Y005485D01*
X003550Y005464D01*
X003503Y005446D01*
X003454Y005433D01*
X003405Y005423D01*
X003355Y005417D01*
X003305Y005415D01*
X003255Y005417D01*
X003205Y005423D01*
X003156Y005433D01*
X003107Y005446D01*
X003060Y005464D01*
X003014Y005485D01*
X002971Y005509D01*
X002929Y005537D01*
X002889Y005568D01*
X002852Y005602D01*
X002818Y005639D01*
X002787Y005679D01*
X002759Y005721D01*
X002735Y005764D01*
X002714Y005810D01*
X002696Y005857D01*
X002683Y005906D01*
X002673Y005955D01*
X002667Y006005D01*
X002665Y006055D01*
M02*
